<svg width="89" height="89" viewBox="0 0 89 89" fill="none" xmlns="http://www.w3.org/2000/svg">
<circle cx="44.4581" cy="44.4581" r="44.4581" fill="url(#paint0_angular_159_37)"/>
<path d="M46.5729 44.8001C49.3224 44.8001 51.5502 46.9034 51.5502 49.5001C51.5502 52.0969 49.3224 54.2001 46.5729 54.2001H41.2102C39.4383 54.2001 38.5523 54.2001 38.0001 53.6502C37.4502 53.0956 37.4502 52.212 37.4502 50.4401V44.8001M46.5729 44.8001C49.3224 44.8001 51.5502 42.6969 51.5502 40.1001C51.5502 37.5034 49.3224 35.4001 46.5729 35.4001H41.2102C39.4383 35.4001 38.5523 35.4001 38.0001 35.95C37.4502 36.5046 37.4502 37.3882 37.4502 39.1601V44.8001M46.5729 44.8001H37.4502" stroke="white" stroke-width="3" stroke-linecap="round" stroke-linejoin="round"/>
<path d="M68 44.8C66.7535 44.8 65.558 44.3048 64.6766 43.4234C63.7952 42.542 63.3 41.3465 63.3 40.1V35.4C63.3 27.6215 61.6785 26 53.9 26H35.1C27.3215 26 25.7 27.6215 25.7 35.4V40.1C25.7 41.3465 25.2048 42.542 24.3234 43.4234C23.442 44.3048 22.2465 44.8 21 44.8M21 44.8C22.2465 44.8 23.442 45.2952 24.3234 46.1766C25.2048 47.058 25.7 48.2535 25.7 49.5V54.2C25.7 61.9785 27.3215 63.6 35.1 63.6H53.9C61.6785 63.6 63.3 61.9785 63.3 54.2V49.5C63.3 48.2535 63.7952 47.058 64.6766 46.1766C65.558 45.2952 66.7535 44.8 68 44.8" stroke="white" stroke-width="3" stroke-linecap="round" stroke-linejoin="round"/>
<defs>
<radialGradient id="paint0_angular_159_37" cx="0" cy="0" r="1" gradientUnits="userSpaceOnUse" gradientTransform="translate(44.4581 44.4581) rotate(90) scale(44.4581)">
<stop stop-color="#8070BA"/>
<stop offset="0.62" stop-color="#AD88C6"/>
</radialGradient>
</defs>
</svg>
