<svg width="90" height="89" viewBox="0 0 90 89" fill="none" xmlns="http://www.w3.org/2000/svg">
<circle cx="44.8194" cy="44.4581" r="44.4581" fill="url(#paint0_angular_159_15)"/>
<path d="M73.2292 28.4493C73.2202 28.4227 73.2095 28.3968 73.1972 28.3716C73.1808 28.3225 73.1605 28.2748 73.1365 28.2289C73.118 28.2003 73.0974 28.1732 73.0748 28.1478C73.0496 28.1103 73.0221 28.0744 72.9924 28.0404C72.9661 28.0153 72.933 27.9947 72.9044 27.9719C72.8718 27.9438 72.8374 27.9179 72.8015 27.8942L61.7928 21.5646C61.6537 21.4844 61.4959 21.4422 61.3353 21.4422C61.1747 21.4422 61.017 21.4844 60.8779 21.5646L49.8669 27.8976C49.8316 27.9216 49.798 27.9479 49.7663 27.9764C49.7351 27.9974 49.7053 28.0203 49.6771 28.045C49.6471 28.0784 49.6196 28.1139 49.5947 28.1512C49.5753 28.1786 49.5501 28.2026 49.533 28.2323C49.5099 28.2784 49.49 28.3261 49.4735 28.375C49.4644 28.4013 49.4495 28.4253 49.4415 28.4527C49.4205 28.5302 49.4098 28.61 49.4095 28.6903V40.7099L40.2352 45.9853V22.4657C40.2354 22.3851 40.2246 22.3048 40.2032 22.227C40.1963 22.1996 40.1803 22.1757 40.1712 22.1494C40.1552 22.1007 40.1353 22.0533 40.1117 22.0078C40.0957 21.9781 40.0694 21.9541 40.0499 21.9255C40.0248 21.888 39.9973 21.8522 39.9676 21.8182C39.9391 21.7938 39.9093 21.7709 39.8784 21.7496C39.8463 21.7219 39.8127 21.6959 39.7777 21.672L28.7656 15.3424C28.6266 15.2622 28.4688 15.22 28.3082 15.22C28.1476 15.22 27.9898 15.2622 27.8507 15.3424L16.8409 21.672C16.8052 21.6953 16.7715 21.7217 16.7403 21.7508C16.7087 21.7717 16.6786 21.7946 16.6499 21.8193C16.6204 21.8527 16.5932 21.8882 16.5687 21.9255C16.5482 21.9541 16.523 21.9781 16.5058 22.0078C16.4824 22.0532 16.4629 22.1006 16.4475 22.1494C16.435 22.1742 16.424 22.1998 16.4143 22.2259C16.3933 22.3041 16.3825 22.3848 16.3823 22.4657V60.1213C16.3819 60.2821 16.424 60.4401 16.5043 60.5795C16.5846 60.7189 16.7003 60.8346 16.8398 60.915L38.8548 73.5742C38.9038 73.5989 38.9546 73.6195 39.0069 73.6359C39.031 73.645 39.0538 73.6587 39.079 73.6656C39.2326 73.7067 39.3943 73.7067 39.5479 73.6656C39.5707 73.6599 39.5902 73.6473 39.6108 73.6405C39.666 73.6231 39.7196 73.601 39.7709 73.5742L61.7928 60.915C61.9322 60.8346 62.048 60.7189 62.1283 60.5795C62.2086 60.4401 62.2507 60.2821 62.2502 60.1213V48.0994L72.7992 42.0336C72.9395 41.9527 73.0557 41.8361 73.1361 41.6956C73.2165 41.5551 73.2581 41.3959 73.2566 41.2341V28.688C73.2573 28.6076 73.248 28.5274 73.2292 28.4493ZM28.307 17.1937L37.4779 22.4646L28.3059 27.7389L19.1362 22.4657L28.307 17.1937ZM38.3997 24.0464V47.0395L33.0783 50.0992L29.2254 52.3149V29.3253L34.5467 26.2656L38.3997 24.0464ZM38.3997 71.1906L18.2167 59.5913V24.051L22.0696 26.2644L27.3899 29.3253V53.9013C27.3922 53.9358 27.3968 53.9702 27.4036 54.0041C27.4063 54.0494 27.4124 54.0945 27.4219 54.1389C27.4335 54.1743 27.448 54.2086 27.4653 54.2416C27.4781 54.281 27.4941 54.3192 27.5134 54.3559C27.5345 54.3868 27.5574 54.4166 27.582 54.4449C27.6049 54.4786 27.6301 54.5107 27.6575 54.5409C27.6838 54.566 27.7169 54.5843 27.7455 54.6071C27.7767 54.6342 27.8096 54.6594 27.8439 54.6825L38.3871 60.6421L38.3997 71.1906ZM39.3146 59.0648L30.1586 53.8887L39.7755 48.3598L50.3267 42.294L59.4906 47.5626L52.7661 51.3955L39.3146 59.0648ZM60.417 59.5867L40.2329 71.1963V60.6535L55.1826 52.1333L60.417 49.1467V59.5867ZM60.417 45.9807L56.5641 43.773L51.2427 40.7133V30.2721L55.0956 32.4878L60.417 35.5498V45.9807ZM61.3319 33.9566L52.1599 28.6834L61.3319 23.4114L70.5016 28.6823L61.3319 33.9566ZM62.2468 45.9807V35.5498L67.5796 32.4878L71.4314 30.2721V40.7099L62.2468 45.9807Z" fill="white"/>
<defs>
<radialGradient id="paint0_angular_159_15" cx="0" cy="0" r="1" gradientUnits="userSpaceOnUse" gradientTransform="translate(44.8194 44.4581) rotate(90) scale(44.4581)">
<stop stop-color="#8070BA"/>
<stop offset="0.62" stop-color="#AD88C6"/>
</radialGradient>
</defs>
</svg>
