<svg width="89" height="89" viewBox="0 0 89 89" fill="none" xmlns="http://www.w3.org/2000/svg">
<circle cx="44.4581" cy="44.4581" r="44.4581" fill="url(#paint0_angular_159_28)"/>
<path d="M44 28C37.3321 28 33.1679 31.5556 31.5 38.6667C34 35.1111 36.9179 33.7778 40.25 34.6667C42.1536 35.1751 43.5107 36.6471 45.0143 38.2756C47.4679 40.928 50.3036 44 56.5 44C63.1679 44 67.3321 40.4444 69 33.3333C66.5 36.8889 63.5821 38.2222 60.25 37.3333C58.3464 36.8249 56.9893 35.3529 55.4857 33.7244C53.0321 31.072 50.1964 28 44 28ZM31.5 44C24.8321 44 20.6679 47.5556 19 54.6667C21.5 51.1111 24.4179 49.7778 27.75 50.6667C29.6536 51.1751 31.0107 52.6471 32.5143 54.2756C34.9679 56.928 37.8036 60 44 60C50.6679 60 54.8321 56.4444 56.5 49.3333C54 52.8889 51.0821 54.2222 47.75 53.3333C45.8464 52.8249 44.4893 51.3529 42.9857 49.7244C40.5321 47.072 37.6964 44 31.5 44Z" stroke="white" stroke-width="2.66667" stroke-linejoin="round"/>
<defs>
<radialGradient id="paint0_angular_159_28" cx="0" cy="0" r="1" gradientUnits="userSpaceOnUse" gradientTransform="translate(44.4581 44.4581) rotate(90) scale(44.4581)">
<stop stop-color="#8070BA"/>
<stop offset="0.62" stop-color="#AD88C6"/>
</radialGradient>
</defs>
</svg>
