<svg width="258" height="79" viewBox="0 0 258 79" fill="none" xmlns="http://www.w3.org/2000/svg">
<path d="M0.39049 14.624C0.39049 11.9893 0.96049 9.646 2.10049 7.594C3.24049 5.51667 4.82382 3.908 6.85049 2.768C8.90249 1.60267 11.2205 1.02 13.8045 1.02C16.9712 1.02 19.6818 1.856 21.9365 3.528C24.1912 5.2 25.6985 7.48 26.4585 10.368H19.3145C18.7825 9.25333 18.0225 8.40467 17.0345 7.822C16.0718 7.23933 14.9698 6.948 13.7285 6.948C11.7272 6.948 10.1058 7.64467 8.86449 9.038C7.62316 10.4313 7.00249 12.2933 7.00249 14.624C7.00249 16.9547 7.62316 18.8167 8.86449 20.21C10.1058 21.6033 11.7272 22.3 13.7285 22.3C14.9698 22.3 16.0718 22.0087 17.0345 21.426C18.0225 20.8433 18.7825 19.9947 19.3145 18.88H26.4585C25.6985 21.768 24.1912 24.048 21.9365 25.72C19.6818 27.3667 16.9712 28.19 13.8045 28.19C11.2205 28.19 8.90249 27.62 6.85049 26.48C4.82382 25.3147 3.24049 23.706 2.10049 21.654C0.96049 19.602 0.39049 17.2587 0.39049 14.624ZM39.2158 22.984H47.7278V28H32.7178V1.324H39.2158V22.984ZM59.6052 6.53V11.926H68.3072V16.942H59.6052V22.794H69.4472V28H53.1072V1.324H69.4472V6.53H59.6052ZM92.5518 23.288H82.5958L80.9998 28H74.1978L83.8498 1.324H91.3738L101.026 28H94.1478L92.5518 23.288ZM90.8798 18.272L87.5738 8.506L84.3058 18.272H90.8798ZM130.107 28H123.609L112.741 11.546V28H106.243V1.324H112.741L123.609 17.854V1.324H130.107V28ZM170.306 1.324L161.072 19.184V28H154.574V19.184L145.34 1.324H152.712L157.88 12.496L163.01 1.324H170.306ZM187.82 28.266C185.312 28.266 183.007 27.6833 180.904 26.518C178.827 25.3527 177.168 23.7313 175.926 21.654C174.71 19.5513 174.102 17.1953 174.102 14.586C174.102 11.9767 174.71 9.63333 175.926 7.556C177.168 5.47867 178.827 3.85733 180.904 2.692C183.007 1.52667 185.312 0.944 187.82 0.944C190.328 0.944 192.621 1.52667 194.698 2.692C196.801 3.85733 198.448 5.47867 199.638 7.556C200.854 9.63333 201.462 11.9767 201.462 14.586C201.462 17.1953 200.854 19.5513 199.638 21.654C198.422 23.7313 196.776 25.3527 194.698 26.518C192.621 27.6833 190.328 28.266 187.82 28.266ZM187.82 22.338C189.948 22.338 191.646 21.6287 192.912 20.21C194.204 18.7913 194.85 16.9167 194.85 14.586C194.85 12.23 194.204 10.3553 192.912 8.962C191.646 7.54333 189.948 6.834 187.82 6.834C185.667 6.834 183.944 7.53067 182.652 8.924C181.386 10.3173 180.752 12.2047 180.752 14.586C180.752 16.942 181.386 18.8293 182.652 20.248C183.944 21.6413 185.667 22.338 187.82 22.338ZM213.741 1.324V17.284C213.741 18.88 214.134 20.1087 214.919 20.97C215.705 21.8313 216.857 22.262 218.377 22.262C219.897 22.262 221.063 21.8313 221.873 20.97C222.684 20.1087 223.089 18.88 223.089 17.284V1.324H229.587V17.246C229.587 19.6273 229.081 21.6413 228.067 23.288C227.054 24.9347 225.686 26.176 223.963 27.012C222.266 27.848 220.366 28.266 218.263 28.266C216.161 28.266 214.273 27.8607 212.601 27.05C210.955 26.214 209.65 24.9727 208.687 23.326C207.725 21.654 207.243 19.6273 207.243 17.246V1.324H213.741ZM250.034 28L244.486 17.93H242.928V28H236.43V1.324H247.336C249.439 1.324 251.225 1.69133 252.694 2.426C254.189 3.16066 255.304 4.174 256.038 5.466C256.773 6.73266 257.14 8.15133 257.14 9.722C257.14 11.4953 256.634 13.0787 255.62 14.472C254.632 15.8653 253.163 16.8533 251.212 17.436L257.368 28H250.034ZM242.928 13.332H246.956C248.147 13.332 249.034 13.0407 249.616 12.458C250.224 11.8753 250.528 11.052 250.528 9.988C250.528 8.97467 250.224 8.17667 249.616 7.594C249.034 7.01133 248.147 6.72 246.956 6.72H242.928V13.332ZM66.6937 59.912C66.6937 61.4573 66.339 62.876 65.6297 64.168C64.9203 65.4347 63.831 66.4607 62.3617 67.246C60.8923 68.0313 59.0683 68.424 56.8897 68.424H52.8617V78H46.3637V51.324H56.8897C59.0177 51.324 60.8163 51.6913 62.2857 52.426C63.755 53.1607 64.857 54.174 65.5917 55.466C66.3263 56.758 66.6937 58.24 66.6937 59.912ZM56.3957 63.256C57.637 63.256 58.5617 62.9647 59.1697 62.382C59.7777 61.7993 60.0817 60.976 60.0817 59.912C60.0817 58.848 59.7777 58.0247 59.1697 57.442C58.5617 56.8593 57.637 56.568 56.3957 56.568H52.8617V63.256H56.3957ZM78.8545 72.984H87.3665V78H72.3565V51.324H78.8545V72.984ZM109.352 73.288H99.3959L97.7999 78H90.9979L100.65 51.324H108.174L117.826 78H110.948L109.352 73.288ZM107.68 68.272L104.374 58.506L101.106 68.272H107.68ZM146.908 78H140.41L129.542 61.546V78H123.044V51.324H129.542L140.41 67.854V51.324H146.908V78ZM160.396 56.53V61.926H169.098V66.942H160.396V72.794H170.238V78H153.898V51.324H170.238V56.53H160.396ZM195.926 51.324V56.53H188.858V78H182.36V56.53H175.292V51.324H195.926ZM210.017 50.374L209.257 68.576H203.747L202.987 50.374H210.017ZM206.597 78.304C205.457 78.304 204.52 77.9747 203.785 77.316C203.076 76.632 202.721 75.796 202.721 74.808C202.721 73.7947 203.076 72.946 203.785 72.262C204.52 71.578 205.457 71.236 206.597 71.236C207.712 71.236 208.624 71.578 209.333 72.262C210.068 72.946 210.435 73.7947 210.435 74.808C210.435 75.796 210.068 76.632 209.333 77.316C208.624 77.9747 207.712 78.304 206.597 78.304Z" fill="white"/>
</svg>
