<svg width="171" height="143" viewBox="0 0 171 143" fill="none" xmlns="http://www.w3.org/2000/svg">
<path d="M34.1429 40.2308C61.5417 40.2308 71.842 53.6646 71.842 68.9585C71.842 68.9585 72.7343 118.094 70.6776 123.233C68.6209 128.371 67.196 133.97 57.9133 138.93C48.6307 143.89 43.2072 142.924 34.9669 142.924C-6.44021 142.924 -9.94229 96.0327 18.4865 83.839C-9.73628 74.332 1.38801 40.2308 34.1429 40.2308ZM34.9669 125.563C42.3831 125.563 54.1255 119.777 54.1255 107.583V68.9585C54.1255 58.4181 44.2372 54.078 35.379 54.078C23.8426 54.078 17.0445 61.3115 17.0445 67.3051C17.0445 75.572 25.9027 79.4988 35.5849 79.4988V96.2158C11.6883 96.2158 10.0402 125.563 34.9669 125.563Z" fill="white"/>
<path d="M128.959 21.0294C95.7421 21.0294 84.8978 34.9985 83.2545 55.8556C83.2545 55.8556 81.703 95.6124 83.2545 117.775C84.8061 139.938 105.07 143.669 127.96 142.701C178.116 140.582 182.406 88.6775 147.94 73.8951C182.156 62.3699 168.669 21.0294 128.959 21.0294ZM127.46 124.814C113.149 124.049 101.728 113.231 101.728 98.4488L102.062 55.8556C102.062 43.0777 116.721 34.9985 127.46 34.9985C143.109 33.7761 151.558 45.7177 151.558 53.8513C151.558 63.8732 140.819 68.6336 129.08 68.6336V84.6687C161.305 83.3293 160.069 126.558 127.46 124.814Z" fill="white"/>
<path d="M73.4531 0C77.4615 10.2097 81.5776 14.0142 91.5427 18.0896C81.5037 21.6826 77.7711 25.6016 74.0821 35.5502C69.958 25.4658 66.0846 21.4007 55.9925 17.4606C66.3112 14.325 69.8768 10.2242 73.4531 0Z" fill="white"/>
</svg>
