<svg width="89" height="89" viewBox="0 0 89 89" fill="none" xmlns="http://www.w3.org/2000/svg">
<circle cx="44.5419" cy="44.4581" r="44.4581" fill="url(#paint0_angular_159_17)"/>
<path d="M21.7119 26.7098C21.7119 23.9047 23.9885 21.6282 26.7936 21.6282H63.091C65.8961 21.6282 68.1726 23.9047 68.1726 26.7098V32.5174C68.1726 33.095 67.9432 33.649 67.5348 34.0574C67.1263 34.4658 66.5724 34.6953 65.9948 34.6953C65.4172 34.6953 64.8633 34.4658 64.4548 34.0574C64.0464 33.649 63.817 33.095 63.817 32.5174V26.7098C63.817 26.5173 63.7405 26.3326 63.6043 26.1965C63.4682 26.0604 63.2835 25.9839 63.091 25.9839H26.7936C26.601 25.9839 26.4164 26.0604 26.2802 26.1965C26.1441 26.3326 26.0676 26.5173 26.0676 26.7098V63.0073C26.0676 63.408 26.3928 63.7332 26.7936 63.7332H65.9948C66.5724 63.7332 67.1263 63.9627 67.5348 64.3711C67.9432 64.7795 68.1726 65.3335 68.1726 65.9111C68.1726 66.4887 67.9432 67.0426 67.5348 67.451C67.1263 67.8595 66.5724 68.0889 65.9948 68.0889H26.7936C25.4458 68.0889 24.1533 67.5535 23.2003 66.6005C22.2473 65.6475 21.7119 64.355 21.7119 63.0073V26.7098ZM45.6682 38.325C46.2458 38.325 46.7998 38.5544 47.2082 38.9629C47.6166 39.3713 47.8461 39.9252 47.8461 40.5028V52.118C47.8461 55.0363 47.0446 57.2229 45.3924 58.5993C43.8156 59.9147 41.9049 60.1035 40.5866 60.1035C40.009 60.1035 39.455 59.874 39.0466 59.4656C38.6382 59.0572 38.4087 58.5032 38.4087 57.9256C38.4087 57.348 38.6382 56.7941 39.0466 56.3857C39.455 55.9772 40.009 55.7478 40.5866 55.7478C41.5913 55.7478 42.2214 55.5735 42.6047 55.2541C42.9125 54.9986 43.4904 54.2814 43.4904 52.118V40.5028C43.4904 39.9252 43.7198 39.3713 44.1283 38.9629C44.5367 38.5544 45.0906 38.325 45.6682 38.325ZM54.4551 40.7351C55.6689 39.2891 57.5767 38.325 60.1872 38.325C62.6119 38.325 64.4413 39.1555 65.6754 40.4593C66.0578 40.8815 66.2596 41.4367 66.2375 42.0059C66.2154 42.5752 65.9711 43.113 65.5571 43.5043C65.143 43.8955 64.5922 44.109 64.0226 44.0989C63.4531 44.0888 62.9101 43.8559 62.5102 43.4502C62.1908 43.1134 61.552 42.6807 60.1872 42.6807C58.7353 42.6807 58.0965 43.1685 57.7887 43.5373C57.4812 43.9111 57.3038 44.3749 57.2834 44.8585C57.2834 45.1605 57.4083 45.7297 57.7887 46.1798C58.0994 46.5485 58.7324 47.0364 60.1872 47.0364C60.4079 47.0364 60.6199 47.0683 60.8202 47.1293C62.7455 47.4023 64.2003 48.2618 65.1934 49.4465C66.3374 50.8113 66.7207 52.42 66.7207 53.5699C66.7207 54.7198 66.3374 56.3285 65.1934 57.6933C63.9796 59.1394 62.0718 60.1035 59.4613 60.1035C57.0366 60.1035 55.2072 59.273 53.9731 57.9692C53.5907 57.547 53.3889 56.9918 53.411 56.4225C53.4331 55.8533 53.6774 55.3154 54.0914 54.9242C54.5054 54.5329 55.0563 54.3195 55.6258 54.3296C56.1954 54.3397 56.7383 54.5726 57.1382 54.9783C57.4576 55.3151 58.0965 55.7478 59.4613 55.7478C60.9132 55.7478 61.552 55.2599 61.8598 54.8912C62.1673 54.5173 62.3447 54.0535 62.3651 53.5699C62.3651 53.2679 62.2402 52.6988 61.8598 52.2487C61.5491 51.8799 60.9161 51.3921 59.4613 51.3921C59.2468 51.3925 59.0335 51.3612 58.8282 51.2992C56.903 51.0233 55.4482 50.1667 54.4551 48.9819C53.4876 47.8236 52.9482 46.3676 52.9277 44.8585C52.9277 43.7086 53.311 42.0999 54.4551 40.7351Z" fill="white"/>
<defs>
<radialGradient id="paint0_angular_159_17" cx="0" cy="0" r="1" gradientUnits="userSpaceOnUse" gradientTransform="translate(44.5419 44.4581) rotate(90) scale(44.4581)">
<stop stop-color="#8070BA"/>
<stop offset="0.62" stop-color="#AD88C6"/>
</radialGradient>
</defs>
</svg>
