<svg width="198" height="278" viewBox="0 0 198 278" fill="none" xmlns="http://www.w3.org/2000/svg">
<path d="M24.1464 63.6263C14.906 50.9205 -4.7305 54.3855 1.04437 72.867L27.6117 147.948C34.5427 169.896 64.5749 161.81 56.4891 143.328C46.3363 115.027 44.9155 102.407 46.0932 87.8833C49.5588 45.145 66.8853 53.2307 69.1952 87.8833C70.7352 110.986 100.404 105.136 102.693 87.8833C117.71 -25.316 179.988 0.0961644 131.571 119.071C107.636 177.885 108.61 172.733 95.7625 223.03C83.6051 270.626 126.95 292.336 147.742 265.768C164.861 243.894 169.496 227.866 178.93 198.773C182.301 188.377 172 187.222 169.689 195.308C158.693 233.782 133.966 263.273 123.596 259.993C103.288 253.571 128.216 213.79 157.093 143.328C231.02 -17.2305 113.089 -36.867 87.6768 54.3855C76.1261 37.059 43.7833 37.059 35.6973 79.7976L24.1464 63.6263Z" fill="#766AB7"/>
<path d="M177.727 184.676L179.653 185.375C179.822 185.436 180.002 185.464 180.182 185.456C180.362 185.448 180.539 185.405 180.702 185.329C180.865 185.252 181.012 185.145 181.133 185.012C181.255 184.878 181.349 184.723 181.41 184.553L184.527 175.971L188.938 180.228L188.968 180.256C189.233 180.492 189.561 180.645 189.912 180.696C190.263 180.746 190.621 180.693 190.942 180.542L191.022 180.504C191.351 180.333 191.619 180.066 191.79 179.738C191.962 179.41 192.028 179.037 191.981 178.67L189.652 159.594C189.612 159.26 189.479 158.944 189.27 158.68C189.061 158.417 188.782 158.217 188.466 158.102C188.15 157.987 187.808 157.963 187.479 158.03C187.149 158.098 186.845 158.256 186.6 158.486L172.572 171.624C172.306 171.878 172.122 172.206 172.045 172.566C171.968 172.926 172.001 173.301 172.141 173.642C172.281 173.982 172.521 174.273 172.829 174.475C173.137 174.677 173.498 174.781 173.866 174.774L173.907 174.771L180.024 174.34L176.907 182.921C176.784 183.262 176.8 183.639 176.954 183.968C177.108 184.297 177.386 184.552 177.727 184.676Z" fill="#766AB7"/>
</svg>
