<svg width="220" height="307" viewBox="0 0 220 307" fill="none" xmlns="http://www.w3.org/2000/svg">
<path d="M26.7073 70.3745C16.4869 56.3212 -5.23222 60.1536 1.15513 80.5954L30.5402 163.64C38.2063 187.915 71.4237 178.971 62.4804 158.529C51.2508 127.226 49.6793 113.268 50.9819 97.2042C54.815 49.9331 73.9792 58.8764 76.5341 97.2042C78.2374 122.757 111.053 116.287 113.585 97.2042C130.194 -28.0011 199.077 0.106354 145.525 131.7C119.052 196.752 120.129 191.053 105.919 246.685C92.4723 299.329 140.415 323.342 163.412 293.956C182.346 269.761 187.472 252.034 197.907 219.855C201.635 208.357 190.242 207.079 187.686 216.022C175.524 258.577 148.175 291.195 136.704 287.568C114.243 280.465 141.815 236.464 173.755 158.529C255.522 -19.058 125.084 -40.7772 96.9759 60.1536C84.2001 40.9895 48.427 40.9895 39.4834 88.2609L26.7073 70.3745Z" fill="white"/>
<path d="M196.795 202.176L198.925 202.949C199.112 203.017 199.311 203.048 199.51 203.039C199.709 203.03 199.905 202.982 200.086 202.898C200.266 202.814 200.428 202.694 200.563 202.547C200.697 202.4 200.801 202.228 200.869 202.04L204.316 192.548L209.196 197.256L209.228 197.287C209.521 197.548 209.884 197.717 210.272 197.774C210.66 197.83 211.057 197.77 211.411 197.603L211.501 197.561C211.864 197.373 212.16 197.077 212.35 196.714C212.54 196.352 212.613 195.939 212.561 195.533L209.985 174.434C209.94 174.064 209.794 173.715 209.562 173.423C209.331 173.132 209.023 172.911 208.673 172.784C208.324 172.657 207.946 172.629 207.581 172.704C207.217 172.779 206.88 172.953 206.609 173.208L191.094 187.74C190.799 188.021 190.595 188.384 190.51 188.782C190.425 189.18 190.462 189.595 190.617 189.972C190.772 190.348 191.037 190.669 191.377 190.893C191.718 191.116 192.118 191.231 192.525 191.223L192.57 191.221L199.336 190.744L195.889 200.235C195.752 200.613 195.77 201.029 195.94 201.393C196.11 201.757 196.418 202.039 196.795 202.176Z" fill="white"/>
</svg>
