<svg width="283" height="92" viewBox="0 0 283 92" fill="none" xmlns="http://www.w3.org/2000/svg">
<path d="M25.824 12.76V35H22.176V19.768L15.392 35H12.864L6.048 19.768V35H2.4V12.76H6.336L14.144 30.2L21.92 12.76H25.824ZM34.3948 15.032C33.7334 15.032 33.1788 14.808 32.7308 14.36C32.2828 13.912 32.0588 13.3573 32.0588 12.696C32.0588 12.0347 32.2828 11.48 32.7308 11.032C33.1788 10.584 33.7334 10.36 34.3948 10.36C35.0348 10.36 35.5788 10.584 36.0268 11.032C36.4748 11.48 36.6988 12.0347 36.6988 12.696C36.6988 13.3573 36.4748 13.912 36.0268 14.36C35.5788 14.808 35.0348 15.032 34.3948 15.032ZM36.1868 17.368V35H32.5388V17.368H36.1868ZM51.7923 17.08C53.1789 17.08 54.4163 17.368 55.5043 17.944C56.6136 18.52 57.4776 19.3733 58.0963 20.504C58.7149 21.6347 59.0243 23 59.0243 24.6V35H55.4083V25.144C55.4083 23.5653 55.0136 22.36 54.2243 21.528C53.4349 20.6747 52.3576 20.248 50.9923 20.248C49.6269 20.248 48.5389 20.6747 47.7283 21.528C46.9389 22.36 46.5443 23.5653 46.5443 25.144V35H42.8963V17.368H46.5443V19.384C47.1416 18.6587 47.8989 18.0933 48.8163 17.688C49.7549 17.2827 50.7469 17.08 51.7923 17.08ZM67.4535 15.032C66.7922 15.032 66.2375 14.808 65.7895 14.36C65.3415 13.912 65.1175 13.3573 65.1175 12.696C65.1175 12.0347 65.3415 11.48 65.7895 11.032C66.2375 10.584 66.7922 10.36 67.4535 10.36C68.0935 10.36 68.6375 10.584 69.0855 11.032C69.5335 11.48 69.7575 12.0347 69.7575 12.696C69.7575 13.3573 69.5335 13.912 69.0855 14.36C68.6375 14.808 68.0935 15.032 67.4535 15.032ZM69.2455 17.368V35H65.5975V17.368H69.2455ZM97.299 17.08C98.6857 17.08 99.923 17.368 101.011 17.944C102.12 18.52 102.984 19.3733 103.603 20.504C104.243 21.6347 104.563 23 104.563 24.6V35H100.947V25.144C100.947 23.5653 100.552 22.36 99.763 21.528C98.9737 20.6747 97.8963 20.248 96.531 20.248C95.1657 20.248 94.0777 20.6747 93.267 21.528C92.4777 22.36 92.083 23.5653 92.083 25.144V35H88.467V25.144C88.467 23.5653 88.0723 22.36 87.283 21.528C86.4937 20.6747 85.4163 20.248 84.051 20.248C82.6857 20.248 81.5977 20.6747 80.787 21.528C79.9977 22.36 79.603 23.5653 79.603 25.144V35H75.955V17.368H79.603V19.384C80.2003 18.6587 80.9577 18.0933 81.875 17.688C82.7923 17.2827 83.7737 17.08 84.819 17.08C86.227 17.08 87.4857 17.3787 88.595 17.976C89.7043 18.5733 90.5577 19.4373 91.155 20.568C91.6883 19.5013 92.5203 18.6587 93.651 18.04C94.7817 17.4 95.9977 17.08 97.299 17.08ZM109.909 26.104C109.909 24.3333 110.272 22.7653 110.997 21.4C111.744 20.0347 112.746 18.9787 114.005 18.232C115.285 17.464 116.693 17.08 118.229 17.08C119.616 17.08 120.821 17.3573 121.845 17.912C122.89 18.4453 123.722 19.1173 124.341 19.928V17.368H128.021V35H124.341V32.376C123.722 33.208 122.88 33.9013 121.813 34.456C120.746 35.0107 119.53 35.288 118.165 35.288C116.65 35.288 115.264 34.904 114.005 34.136C112.746 33.3467 111.744 32.2587 110.997 30.872C110.272 29.464 109.909 27.8747 109.909 26.104ZM124.341 26.168C124.341 24.952 124.085 23.896 123.573 23C123.082 22.104 122.432 21.4213 121.621 20.952C120.81 20.4827 119.936 20.248 118.997 20.248C118.058 20.248 117.184 20.4827 116.373 20.952C115.562 21.4 114.901 22.072 114.389 22.968C113.898 23.8427 113.653 24.888 113.653 26.104C113.653 27.32 113.898 28.3867 114.389 29.304C114.901 30.2213 115.562 30.9253 116.373 31.416C117.205 31.8853 118.08 32.12 118.997 32.12C119.936 32.12 120.81 31.8853 121.621 31.416C122.432 30.9467 123.082 30.264 123.573 29.368C124.085 28.4507 124.341 27.384 124.341 26.168ZM138.381 11.32V35H134.733V11.32H138.381Z" fill="white"/>
<path d="M25.824 56.76V79H22.176V63.768L15.392 79H12.864L6.048 63.768V79H2.4V56.76H6.336L14.144 74.2L21.92 56.76H25.824ZM51.0667 61.368V79H47.4187V76.92C46.8428 77.6453 46.0854 78.2213 45.1468 78.648C44.2294 79.0533 43.2481 79.256 42.2028 79.256C40.8161 79.256 39.5681 78.968 38.4587 78.392C37.3707 77.816 36.5067 76.9627 35.8667 75.832C35.2481 74.7013 34.9387 73.336 34.9387 71.736V61.368H38.5547V71.192C38.5547 72.7707 38.9494 73.9867 39.7387 74.84C40.5281 75.672 41.6054 76.088 42.9707 76.088C44.3361 76.088 45.4134 75.672 46.2028 74.84C47.0134 73.9867 47.4187 72.7707 47.4187 71.192V61.368H51.0667ZM66.76 79.288C65.3733 79.288 64.1253 79.0427 63.016 78.552C61.928 78.04 61.064 77.3573 60.424 76.504C59.784 75.6293 59.4427 74.6587 59.4 73.592H63.176C63.24 74.3387 63.592 74.968 64.232 75.48C64.8933 75.9707 65.7147 76.216 66.696 76.216C67.72 76.216 68.5093 76.024 69.064 75.64C69.64 75.2347 69.928 74.7227 69.928 74.104C69.928 73.4427 69.608 72.952 68.968 72.632C68.3493 72.312 67.3573 71.96 65.992 71.576C64.6693 71.2133 63.592 70.8613 62.76 70.52C61.928 70.1787 61.2027 69.656 60.584 68.952C59.9867 68.248 59.688 67.32 59.688 66.168C59.688 65.2293 59.9653 64.376 60.52 63.608C61.0747 62.8187 61.864 62.2 62.888 61.752C63.9333 61.304 65.128 61.08 66.472 61.08C68.4773 61.08 70.088 61.592 71.304 62.616C72.5413 63.6187 73.2027 64.9947 73.288 66.744H69.64C69.576 65.9547 69.256 65.3253 68.68 64.856C68.104 64.3867 67.3253 64.152 66.344 64.152C65.384 64.152 64.648 64.3333 64.136 64.696C63.624 65.0587 63.368 65.5387 63.368 66.136C63.368 66.6053 63.5387 67 63.88 67.32C64.2213 67.64 64.6373 67.896 65.128 68.088C65.6187 68.2587 66.344 68.4827 67.304 68.76C68.584 69.1013 69.6293 69.4533 70.44 69.816C71.272 70.1573 71.9867 70.6693 72.584 71.352C73.1813 72.0347 73.4907 72.9413 73.512 74.072C73.512 75.0747 73.2347 75.9707 72.68 76.76C72.1253 77.5493 71.336 78.168 70.312 78.616C69.3093 79.064 68.1253 79.288 66.76 79.288ZM83.7898 59.032C83.1284 59.032 82.5738 58.808 82.1258 58.36C81.6778 57.912 81.4538 57.3573 81.4538 56.696C81.4538 56.0347 81.6778 55.48 82.1258 55.032C82.5738 54.584 83.1284 54.36 83.7898 54.36C84.4298 54.36 84.9738 54.584 85.4218 55.032C85.8698 55.48 86.0938 56.0347 86.0938 56.696C86.0938 57.3573 85.8698 57.912 85.4218 58.36C84.9738 58.808 84.4298 59.032 83.7898 59.032ZM85.5818 61.368V79H81.9338V61.368H85.5818ZM93.6352 70.168C93.6352 68.3547 93.9979 66.7653 94.7232 65.4C95.4699 64.0133 96.4939 62.9467 97.7952 62.2C99.0966 61.4533 100.59 61.08 102.275 61.08C104.409 61.08 106.169 61.592 107.555 62.616C108.963 63.6187 109.913 65.0587 110.403 66.936H106.467C106.147 66.0613 105.635 65.3787 104.931 64.888C104.227 64.3973 103.342 64.152 102.275 64.152C100.782 64.152 99.5872 64.6853 98.6912 65.752C97.8166 66.7973 97.3792 68.2693 97.3792 70.168C97.3792 72.0667 97.8166 73.5493 98.6912 74.616C99.5872 75.6827 100.782 76.216 102.275 76.216C104.387 76.216 105.785 75.288 106.467 73.432H110.403C109.891 75.224 108.931 76.6533 107.523 77.72C106.115 78.7653 104.366 79.288 102.275 79.288C100.59 79.288 99.0966 78.9147 97.7952 78.168C96.4939 77.4 95.4699 76.3333 94.7232 74.968C93.9979 73.5813 93.6352 71.9813 93.6352 70.168ZM144.399 56.76V59.736H134.959V66.296H142.319V69.272H134.959V79H131.311V56.76H144.399ZM168.42 69.752C168.42 70.4133 168.377 71.0107 168.292 71.544H154.82C154.927 72.952 155.449 74.0827 156.388 74.936C157.327 75.7893 158.479 76.216 159.844 76.216C161.807 76.216 163.193 75.3947 164.004 73.752H167.94C167.407 75.3733 166.436 76.7067 165.028 77.752C163.641 78.776 161.913 79.288 159.844 79.288C158.159 79.288 156.644 78.9147 155.3 78.168C153.977 77.4 152.932 76.3333 152.164 74.968C151.417 73.5813 151.044 71.9813 151.044 70.168C151.044 68.3547 151.407 66.7653 152.132 65.4C152.879 64.0133 153.913 62.9467 155.236 62.2C156.58 61.4533 158.116 61.08 159.844 61.08C161.508 61.08 162.991 61.4427 164.292 62.168C165.593 62.8933 166.607 63.9173 167.332 65.24C168.057 66.5413 168.42 68.0453 168.42 69.752ZM164.612 68.6C164.591 67.256 164.111 66.1787 163.172 65.368C162.233 64.5573 161.071 64.152 159.684 64.152C158.425 64.152 157.348 64.5573 156.452 65.368C155.556 66.1573 155.023 67.2347 154.852 68.6H164.612ZM182.89 79.288C181.503 79.288 180.255 79.0427 179.146 78.552C178.058 78.04 177.194 77.3573 176.554 76.504C175.914 75.6293 175.573 74.6587 175.53 73.592H179.306C179.37 74.3387 179.722 74.968 180.362 75.48C181.023 75.9707 181.845 76.216 182.826 76.216C183.85 76.216 184.639 76.024 185.194 75.64C185.77 75.2347 186.058 74.7227 186.058 74.104C186.058 73.4427 185.738 72.952 185.098 72.632C184.479 72.312 183.487 71.96 182.122 71.576C180.799 71.2133 179.722 70.8613 178.89 70.52C178.058 70.1787 177.333 69.656 176.714 68.952C176.117 68.248 175.818 67.32 175.818 66.168C175.818 65.2293 176.095 64.376 176.65 63.608C177.205 62.8187 177.994 62.2 179.018 61.752C180.063 61.304 181.258 61.08 182.602 61.08C184.607 61.08 186.218 61.592 187.434 62.616C188.671 63.6187 189.333 64.9947 189.418 66.744H185.77C185.706 65.9547 185.386 65.3253 184.81 64.856C184.234 64.3867 183.455 64.152 182.474 64.152C181.514 64.152 180.778 64.3333 180.266 64.696C179.754 65.0587 179.498 65.5387 179.498 66.136C179.498 66.6053 179.669 67 180.01 67.32C180.351 67.64 180.767 67.896 181.258 68.088C181.749 68.2587 182.474 68.4827 183.434 68.76C184.714 69.1013 185.759 69.4533 186.57 69.816C187.402 70.1573 188.117 70.6693 188.714 71.352C189.311 72.0347 189.621 72.9413 189.642 74.072C189.642 75.0747 189.365 75.9707 188.81 76.76C188.255 77.5493 187.466 78.168 186.442 78.616C185.439 79.064 184.255 79.288 182.89 79.288ZM202.32 64.344V74.104C202.32 74.7653 202.469 75.2453 202.768 75.544C203.088 75.8213 203.621 75.96 204.368 75.96H206.608V79H203.728C202.085 79 200.826 78.616 199.952 77.848C199.077 77.08 198.64 75.832 198.64 74.104V64.344H196.56V61.368H198.64V56.984H202.32V61.368H206.608V64.344H202.32ZM216.306 59.032C215.645 59.032 215.09 58.808 214.642 58.36C214.194 57.912 213.97 57.3573 213.97 56.696C213.97 56.0347 214.194 55.48 214.642 55.032C215.09 54.584 215.645 54.36 216.306 54.36C216.946 54.36 217.49 54.584 217.938 55.032C218.386 55.48 218.61 56.0347 218.61 56.696C218.61 57.3573 218.386 57.912 217.938 58.36C217.49 58.808 216.946 59.032 216.306 59.032ZM218.098 61.368V79H214.45V61.368H218.098ZM234.183 75.736L239.175 61.368H243.047L236.327 79H231.975L225.287 61.368H229.191L234.183 75.736ZM249.069 70.104C249.069 68.3333 249.432 66.7653 250.157 65.4C250.904 64.0347 251.906 62.9787 253.165 62.232C254.445 61.464 255.853 61.08 257.389 61.08C258.776 61.08 259.981 61.3573 261.005 61.912C262.05 62.4453 262.882 63.1173 263.501 63.928V61.368H267.181V79H263.501V76.376C262.882 77.208 262.04 77.9013 260.973 78.456C259.906 79.0107 258.69 79.288 257.325 79.288C255.81 79.288 254.424 78.904 253.165 78.136C251.906 77.3467 250.904 76.2587 250.157 74.872C249.432 73.464 249.069 71.8747 249.069 70.104ZM263.501 70.168C263.501 68.952 263.245 67.896 262.733 67C262.242 66.104 261.592 65.4213 260.781 64.952C259.97 64.4827 259.096 64.248 258.157 64.248C257.218 64.248 256.344 64.4827 255.533 64.952C254.722 65.4 254.061 66.072 253.549 66.968C253.058 67.8427 252.813 68.888 252.813 70.104C252.813 71.32 253.058 72.3867 253.549 73.304C254.061 74.2213 254.722 74.9253 255.533 75.416C256.365 75.8853 257.24 76.12 258.157 76.12C259.096 76.12 259.97 75.8853 260.781 75.416C261.592 74.9467 262.242 74.264 262.733 73.368C263.245 72.4507 263.501 71.384 263.501 70.168ZM280.1 55.32V79H276.452V55.32H280.1Z" fill="white"/>
<path d="M202.99 23.6808V8.39329C202.989 8.18454 202.942 7.97869 202.851 7.79102C202.761 7.60335 202.629 7.43869 202.467 7.30927C202.307 7.17866 202.121 7.08589 201.921 7.03779C201.721 6.98969 201.512 6.98748 201.311 7.03131L188.926 9.81086C188.621 9.8805 188.348 10.0535 188.152 10.3011C187.957 10.5488 187.852 10.8563 187.853 11.1728V22.7636C186.914 22.3157 185.856 22.1875 184.838 22.3982C183.82 22.609 182.898 23.1473 182.209 23.9325C181.52 24.7176 181.101 25.7072 181.016 26.7529C180.931 27.7985 181.184 28.8438 181.737 29.7319C182.29 30.6201 183.114 31.3031 184.084 31.6787C185.054 32.0542 186.118 32.1019 187.117 31.8147C188.116 31.5276 188.996 30.9209 189.625 30.0858C190.254 29.2507 190.598 28.2322 190.605 27.1831C190.619 26.9424 190.619 26.7011 190.605 26.4604V12.2847L200.238 10.1305V19.984C199.298 19.5358 198.239 19.4078 197.221 19.619C196.203 19.8302 195.28 20.3693 194.591 21.1554C193.902 21.9415 193.485 22.9321 193.401 23.9784C193.317 25.0248 193.571 26.0704 194.126 26.9582C194.68 27.846 195.505 28.5281 196.477 28.9021C197.448 29.2761 198.513 29.3218 199.512 29.0323C200.511 28.7428 201.39 28.1337 202.018 27.2966C202.645 26.4594 202.986 25.4394 202.99 24.3896C203.003 24.1535 203.003 23.9169 202.99 23.6808Z" fill="white"/>
<path d="M272.98 37.0025V26.0025C272.979 25.8523 272.945 25.7042 272.879 25.5692C272.813 25.4341 272.718 25.3157 272.6 25.2225C272.484 25.1286 272.348 25.0618 272.203 25.0272C272.057 24.9926 271.906 24.991 271.76 25.0225L262.76 27.0225C262.538 27.0726 262.339 27.1971 262.197 27.3753C262.056 27.5535 261.979 27.7748 261.98 28.0025V36.3425C261.297 36.0202 260.528 35.928 259.789 36.0797C259.049 36.2313 258.379 36.6186 257.878 37.1836C257.378 37.7485 257.073 38.4606 257.012 39.213C256.95 39.9654 257.134 40.7175 257.536 41.3566C257.938 41.9956 258.536 42.4871 259.241 42.7573C259.946 43.0275 260.719 43.0619 261.445 42.8552C262.171 42.6486 262.811 42.2121 263.268 41.6112C263.725 41.0103 263.975 40.2774 263.98 39.5225C263.99 39.3494 263.99 39.1757 263.98 39.0025V28.8025L270.98 27.2525V34.3425C270.297 34.0201 269.528 33.9279 268.788 34.0799C268.048 34.2318 267.377 34.6198 266.877 35.1854C266.376 35.751 266.072 36.4638 266.011 37.2167C265.95 37.9695 266.135 38.7219 266.538 39.3607C266.941 39.9996 267.541 40.4904 268.247 40.7595C268.952 41.0286 269.726 41.0615 270.452 40.8531C271.179 40.6448 271.817 40.2066 272.273 39.6042C272.729 39.0018 272.977 38.2679 272.98 37.5125C272.989 37.3427 272.989 37.1724 272.98 37.0025Z" fill="white"/>
<path d="M234.436 26.1818V19.8182L238.436 15.8C239.891 14.3636 240.163 12.0727 239.145 10.2909C238.757 9.5995 238.192 9.0233 237.508 8.62091C236.825 8.21851 236.047 8.00428 235.254 8C234.872 8 234.436 8.05455 234.09 8.16364C232.126 8.69091 230.799 10.5091 230.799 12.5455V18.4364L225.089 24.2C223.608 25.7126 222.603 27.6265 222.199 29.7046C221.795 31.7826 222.009 33.9336 222.816 35.8909C224.216 39.3455 227.271 41.7273 230.799 42.3455V43.4545C230.799 43.9273 230.381 44.3636 229.89 44.3636H227.162V48H229.89C232.344 48 234.436 45.9818 234.436 43.4545V42.5455C238.127 42.5455 242 39.0545 242 33.9091C242 29.7273 238.509 26.1818 234.436 26.1818ZM234.436 12.5455C234.436 12.1273 234.636 11.8 235.017 11.6909C235.417 11.5818 235.836 11.7455 236.036 12.1091C236.139 12.2837 236.18 12.4877 236.154 12.6887C236.127 12.8896 236.035 13.076 235.89 13.2182L234.436 14.7818V12.5455ZM230.799 27.0909C229.035 28.2545 227.708 30.2545 227.235 32.1091L230.799 33.0545V38.6C229.756 38.3205 228.792 37.8043 227.982 37.0916C227.171 36.379 226.536 35.489 226.126 34.4909C225.053 31.8364 225.635 28.8182 227.635 26.7818L230.799 23.4545V27.0909ZM234.436 38.9091V29.7091C236.563 29.7091 238.4 31.7091 238.4 33.9091C238.4 37.0909 236.09 38.9091 234.436 38.9091Z" fill="white"/>
</svg>
