<svg width="89" height="89" viewBox="0 0 89 89" fill="none" xmlns="http://www.w3.org/2000/svg">
<circle cx="44.4581" cy="44.4581" r="44.4581" fill="url(#paint0_angular_159_14)"/>
<path d="M44.4581 23.186C63.9804 23.186 78.9923 33.3236 78.9923 44.458C78.9923 55.5925 63.969 65.7301 44.4581 65.7301C24.9359 65.7301 9.924 55.5925 9.924 44.458C9.924 33.3236 24.9473 23.186 44.4581 23.186ZM44.4581 20.8271C24.3322 20.8271 8.0105 31.4 8.0105 44.458C8.0105 57.5161 24.3322 68.0889 44.4581 68.0889C64.5841 68.0889 80.9058 57.5161 80.9058 44.458C80.9058 31.4 64.5841 20.8271 44.4581 20.8271ZM32.8632 42.5625C31.9634 48.2491 28.7857 47.6594 24.8789 47.6594L26.4393 37.7465C30.7675 37.7465 33.7061 37.1708 32.8632 42.5625ZM19.1042 57.6986H23.2843L24.2753 51.4083C28.9565 51.4083 31.8609 51.8295 34.5489 48.7265C37.5217 45.3567 38.2962 39.3612 36.1777 36.3564C35.0729 34.7838 33.2961 34.0116 30.8814 34.0116H22.8287L19.1042 57.6986ZM40.2553 27.7072H44.4126L43.4217 33.9975C47.0095 33.9975 50.3353 33.6746 51.9413 35.4999C53.627 37.4095 52.8183 39.8526 50.9959 51.3802H46.7817C48.5357 40.2317 48.866 39.305 48.2282 38.4626C47.6131 37.6482 46.2122 37.8167 42.8294 37.8167L40.6881 51.3802H36.5308L40.2553 27.7072ZM65.5294 42.5625C64.6182 48.3333 61.3493 47.6594 57.5451 47.6594L59.1055 37.7465C63.4565 37.7465 66.3723 37.1708 65.5294 42.5625ZM51.7705 57.6986H55.9619L56.9529 51.4083C61.8733 51.4083 64.5955 51.7593 67.2265 48.7265C70.1993 45.3567 70.9738 39.3612 68.8553 36.3564C67.7505 34.7838 65.9736 34.0116 63.559 34.0116H55.5063L51.7705 57.6986Z" fill="white"/>
<defs>
<radialGradient id="paint0_angular_159_14" cx="0" cy="0" r="1" gradientUnits="userSpaceOnUse" gradientTransform="translate(44.4581 44.4581) rotate(90) scale(44.4581)">
<stop stop-color="#8070BA"/>
<stop offset="0.62" stop-color="#AD88C6"/>
</radialGradient>
</defs>
</svg>
