<svg width="89" height="89" viewBox="0 0 89 89" fill="none" xmlns="http://www.w3.org/2000/svg">
<circle cx="44.5" cy="44.5" r="44.5" fill="url(#paint0_angular_160_50)"/>
<path d="M71.8167 44.9529C71.8167 51.4948 59.4436 56.797 44.1806 56.797C28.9175 56.797 16.5444 51.4948 16.5444 44.9529C16.5444 38.4111 28.9175 33.1089 44.1806 33.1089C59.4436 33.1089 71.8167 38.4111 71.8167 44.9529Z" stroke="white" stroke-width="2"/>
<path d="M31.0182 69.2529C36.7704 72.3718 47.3235 64.0139 54.5957 50.5945C61.864 37.1713 63.0958 23.7678 57.3435 20.6528C51.5913 17.5339 41.0382 25.8918 33.766 39.3111C26.4977 52.7344 25.2659 66.1379 31.0182 69.2529Z" stroke="white" stroke-width="2"/>
<path d="M57.3435 69.2529C51.5913 72.3718 41.0382 64.0139 33.766 50.5945C26.4977 37.1713 25.2659 23.7678 31.0182 20.6528C36.7704 17.5339 47.3235 25.8918 54.5957 39.3111C61.864 52.7344 63.0958 66.1379 57.3435 69.2529Z" stroke="white" stroke-width="2"/>
<path d="M40.2327 44.9529C40.2327 46 40.6486 47.0042 41.389 47.7446C42.1294 48.485 43.1336 48.9009 44.1807 48.9009C45.2278 48.9009 46.232 48.485 46.9724 47.7446C47.7128 47.0042 48.1287 46 48.1287 44.9529C48.1287 43.9058 47.7128 42.9016 46.9724 42.1612C46.232 41.4208 45.2278 41.0049 44.1807 41.0049C43.1336 41.0049 42.1294 41.4208 41.389 42.1612C40.6486 42.9016 40.2327 43.9058 40.2327 44.9529Z" stroke="white" stroke-width="2"/>
<defs>
<radialGradient id="paint0_angular_160_50" cx="0" cy="0" r="1" gradientUnits="userSpaceOnUse" gradientTransform="translate(44.5 44.5) rotate(90) scale(44.5)">
<stop stop-color="#8070BA"/>
<stop offset="0.62" stop-color="#AD88C6"/>
</radialGradient>
</defs>
</svg>
