<svg width="145" height="177" viewBox="0 0 145 177" fill="none" xmlns="http://www.w3.org/2000/svg">
<path d="M0.57075 133.344C0.57075 132.427 1.24275 131.968 2.58675 131.968C3.16275 131.968 4.26142 131.989 5.88275 132.032C7.67475 132.117 9.02942 132.16 9.94675 132.16C10.6934 132.16 11.6001 132.117 12.6668 132.032C13.3921 131.989 13.8508 131.968 14.0428 131.968C15.2161 132.011 16.2081 132.224 17.0188 132.608C17.2534 132.715 17.4454 132.843 17.5948 132.992C17.7441 133.141 17.8188 133.387 17.8188 133.728C17.8188 134.197 17.6694 134.603 17.3708 134.944C17.0721 135.264 16.7094 135.424 16.2828 135.424C15.8134 135.424 15.1308 135.36 14.2348 135.232C13.4454 135.083 12.7521 135.008 12.1548 135.008C11.5788 135.008 11.1414 135.019 10.8428 135.04C10.7788 135.744 10.7468 137.429 10.7468 140.096C10.7468 143.275 10.8428 146.496 11.0348 149.76L11.0988 150.688C11.0988 151.563 10.5974 152 9.59475 152C8.80542 152 8.27208 151.819 7.99475 151.456C7.71742 151.072 7.57875 150.496 7.57875 149.728C7.57875 148.213 7.53608 146.325 7.45075 144.064C7.36542 142.187 7.32275 140.853 7.32275 140.064C7.32275 139.531 7.38675 137.899 7.51475 135.168L3.77075 135.2C2.57608 135.2 1.74408 135.093 1.27475 134.88C0.805417 134.645 0.57075 134.133 0.57075 133.344ZM29.368 141.728C29.5387 142.027 29.6773 142.464 29.784 143.04C29.8907 143.595 29.944 144.096 29.944 144.544C29.944 145.376 29.7627 146.56 29.4 148.096C27.928 150.784 25.752 152.128 22.872 152.128C21.8053 152.128 20.7173 151.776 19.608 151.072C18.4987 150.368 17.7307 149.557 17.304 148.64C16.728 146.805 16.44 145.643 16.44 145.152C16.44 144.299 16.6213 143.392 16.984 142.432C17.368 141.472 17.848 140.64 18.424 139.936C18.7867 139.445 19.4373 139.029 20.376 138.688C21.3147 138.325 22.168 138.144 22.936 138.144C24.4293 138.144 25.6987 138.432 26.744 139.008C27.7893 139.563 28.664 140.469 29.368 141.728ZM26.584 146.88C26.6907 146.603 26.744 145.888 26.744 144.736C26.744 144.117 26.6267 143.509 26.392 142.912C26.1787 142.315 25.8587 141.803 25.432 141.376C25.3893 141.333 25.272 141.269 25.08 141.184C24.888 141.077 24.6213 140.981 24.28 140.896C23.96 140.789 23.5867 140.736 23.16 140.736C21.9653 140.736 21.0907 141.216 20.536 142.176C19.9813 143.136 19.704 144.224 19.704 145.44C19.704 145.653 19.7573 146.059 19.864 146.656C19.992 147.253 20.0987 147.627 20.184 147.776C20.248 147.925 20.408 148.139 20.664 148.416C20.9413 148.672 21.272 148.907 21.656 149.12C22.0613 149.312 22.4773 149.408 22.904 149.408C23.864 149.408 24.632 149.184 25.208 148.736C25.784 148.267 26.2427 147.648 26.584 146.88ZM33.807 140.864C33.615 140.864 33.4337 140.885 33.263 140.928C33.0923 140.949 32.9217 140.96 32.751 140.96C32.5163 140.96 32.2923 140.853 32.079 140.64C31.887 140.427 31.791 140.235 31.791 140.064C31.791 139.509 32.0683 139.083 32.623 138.784C33.1777 138.464 33.743 138.304 34.319 138.304C34.8097 138.304 35.311 138.475 35.823 138.816C36.3563 139.136 36.751 139.552 37.007 140.064C37.5617 139.403 38.2443 138.923 39.055 138.624C39.8657 138.325 40.7083 138.176 41.583 138.176C42.5643 138.176 43.471 138.485 44.303 139.104C45.1563 139.723 45.8283 140.512 46.319 141.472C46.8097 142.411 47.055 143.349 47.055 144.288C47.055 145.205 46.959 146.027 46.767 146.752C46.575 147.456 46.2337 148.171 45.743 148.896C45.1883 149.664 44.4417 150.293 43.503 150.784C42.5857 151.275 41.487 151.52 40.207 151.52C39.8657 151.52 39.4497 151.435 38.959 151.264C38.4683 151.072 38.063 150.869 37.743 150.656C37.5937 152.107 37.519 153.365 37.519 154.432C37.519 155.072 37.551 155.68 37.615 156.256C37.6577 156.939 37.679 157.429 37.679 157.728C37.679 158.197 37.519 158.539 37.199 158.752C36.879 158.987 36.527 159.104 36.143 159.104C35.375 159.104 34.863 158.891 34.607 158.464C34.3723 158.059 34.255 157.472 34.255 156.704C34.3403 154.869 34.447 153.173 34.575 151.616C34.703 149.696 34.767 146.731 34.767 142.72C34.767 142.336 34.6923 141.931 34.543 141.504C34.3937 141.077 34.1483 140.864 33.807 140.864ZM37.871 147.488C37.9777 147.893 38.2763 148.235 38.767 148.512C39.279 148.768 39.7377 148.896 40.143 148.896C41.359 148.896 42.2657 148.565 42.863 147.904C43.311 147.435 43.599 146.976 43.727 146.528C43.8763 146.08 43.951 145.365 43.951 144.384C43.951 143.616 43.8017 142.976 43.503 142.464C43.2043 141.931 42.8417 141.547 42.415 141.312C41.9883 141.056 41.583 140.928 41.199 140.928C40.3243 140.928 39.6097 141.195 39.055 141.728C38.5217 142.24 38.1803 142.944 38.031 143.84C37.9243 144.544 37.871 145.76 37.871 147.488ZM62.956 134.336C62.892 135.701 62.86 137.013 62.86 138.272C62.86 139.573 62.9453 141.483 63.116 144C63.1373 144.384 63.18 145.163 63.244 146.336C63.308 147.488 63.34 148.544 63.34 149.504C63.5533 149.483 63.7773 149.451 64.012 149.408C64.268 149.365 64.46 149.344 64.588 149.344C65.0573 149.344 65.4307 149.461 65.708 149.696C65.9853 149.931 66.124 150.293 66.124 150.784C66.124 151.104 65.996 151.349 65.74 151.52C65.484 151.691 65.036 151.819 64.396 151.904C63.7773 151.968 62.8707 152 61.676 152C60.3533 152 59.3613 151.957 58.7 151.872C58.0387 151.787 57.58 151.627 57.324 151.392C57.068 151.136 56.94 150.763 56.94 150.272C56.94 149.909 57.0573 149.664 57.292 149.536C57.5267 149.408 57.8573 149.344 58.284 149.344L58.956 149.376L60.012 149.44L59.852 145.664C59.724 143.616 59.66 141.739 59.66 140.032C59.66 139.115 59.692 137.856 59.756 136.256L59.82 134.496C59.0947 134.539 58.5293 134.56 58.124 134.56C57.6547 134.56 57.3347 134.475 57.164 134.304C57.0147 134.133 56.94 133.781 56.94 133.248C56.94 132.651 57.3453 132.267 58.156 132.096C58.988 131.925 60.2467 131.84 61.932 131.84C63.2333 131.84 64.204 131.883 64.844 131.968C65.5053 132.053 65.836 132.245 65.836 132.544C65.836 133.269 65.676 133.749 65.356 133.984C65.0573 134.197 64.4707 134.304 63.596 134.304L62.956 134.336ZM68.8775 140.736C68.7068 140.608 68.5682 140.48 68.4615 140.352C68.3548 140.203 68.3015 139.947 68.3015 139.584C68.3015 139.179 68.4402 138.869 68.7175 138.656C69.0162 138.421 69.3575 138.304 69.7415 138.304C70.4882 138.304 71.1282 138.496 71.6615 138.88C72.2162 139.264 72.6215 139.797 72.8775 140.48C73.3468 139.605 73.9442 139.008 74.6695 138.688C75.3948 138.347 76.3975 138.176 77.6775 138.176C78.1895 138.176 78.7122 138.336 79.2455 138.656C79.8002 138.955 80.3015 139.328 80.7495 139.776C81.1122 140.245 81.4215 140.832 81.6775 141.536C81.9335 142.219 82.0615 142.837 82.0615 143.392C82.0615 143.712 82.0402 144.235 81.9975 144.96C81.9548 145.728 81.9335 146.336 81.9335 146.784C81.9335 148.277 82.2215 149.195 82.7975 149.536C82.8828 149.579 83.0428 149.632 83.2775 149.696C83.5122 149.76 83.6828 149.824 83.7895 149.888C83.9175 149.952 83.9815 150.048 83.9815 150.176C84.0028 150.688 83.8108 151.115 83.4055 151.456C83.0215 151.776 82.5522 151.936 81.9975 151.936C81.1655 151.936 80.5148 151.712 80.0455 151.264C79.5762 150.816 79.2455 150.133 79.0535 149.216C78.9468 148.875 78.8935 148.373 78.8935 147.712C78.8935 147.349 78.9148 146.763 78.9575 145.952C79.0215 145.312 79.0535 144.629 79.0535 143.904C79.0535 143.157 78.8402 142.507 78.4135 141.952C77.9868 141.376 77.4002 141.088 76.6535 141.088C76.2055 141.088 75.7362 141.227 75.2455 141.504C74.7548 141.76 74.4135 142.08 74.2215 142.464C73.9015 143.125 73.6882 143.797 73.5815 144.48C73.3255 145.803 73.1975 147.072 73.1975 148.288C73.1975 148.587 73.2188 149.163 73.2615 150.016C73.2615 150.08 73.2615 150.24 73.2615 150.496C73.2615 150.731 73.2295 150.955 73.1655 151.168C73.1228 151.381 73.0375 151.573 72.9095 151.744C72.8242 151.829 72.6642 151.915 72.4295 152C72.1948 152.085 71.9922 152.128 71.8215 152.128C71.5228 152.128 71.1495 152 70.7015 151.744C70.2535 151.488 69.9868 151.2 69.9015 150.88L69.8695 150.432C69.8695 150.261 69.8908 150.005 69.9335 149.664C70.1895 148.171 70.3175 146.869 70.3175 145.76C70.3175 145.269 70.3068 144.896 70.2855 144.64L70.2535 143.168C70.2535 142.72 70.1255 142.293 69.8695 141.888C69.6135 141.461 69.2828 141.077 68.8775 140.736ZM98.964 131.968C98.964 132.181 98.932 132.448 98.868 132.768C98.8467 132.896 98.8253 133.035 98.804 133.184C98.7827 133.333 98.7613 133.515 98.74 133.728C98.548 135.648 98.452 138.027 98.452 140.864C98.452 143.552 98.5693 145.547 98.804 146.848C99.0387 148.149 99.4013 148.928 99.892 149.184L100.5 149.44C100.82 149.547 101.055 149.664 101.204 149.792C101.375 149.92 101.46 150.133 101.46 150.432C101.46 150.859 101.236 151.232 100.788 151.552C100.34 151.851 99.8493 152 99.316 152C98.7613 152 98.2173 151.776 97.684 151.328C97.1507 150.859 96.7133 150.272 96.372 149.568C96.0093 150.336 95.3693 150.955 94.452 151.424C93.5347 151.872 92.66 152.096 91.828 152.096C91.0813 152.096 90.4307 152 89.876 151.808C89.3213 151.595 88.7453 151.275 88.148 150.848C87.4227 150.336 86.868 149.685 86.484 148.896C86.1213 148.107 85.94 147.243 85.94 146.304C85.94 145.365 86.1213 144.373 86.484 143.328C86.8467 142.261 87.2627 141.387 87.732 140.704C88.2867 139.915 89.0227 139.328 89.94 138.944C90.8573 138.539 91.8067 138.336 92.788 138.336C93.3427 138.336 93.8227 138.443 94.228 138.656C94.6333 138.848 95.0493 139.125 95.476 139.488C95.476 138.421 95.4547 137.525 95.412 136.8C95.3907 136.608 95.38 136.384 95.38 136.128C95.38 134.293 95.5293 132.843 95.828 131.776C96.0627 130.88 96.628 130.432 97.524 130.432C98.0147 130.432 98.3773 130.539 98.612 130.752C98.8467 130.965 98.964 131.371 98.964 131.968ZM89.044 146.24C89.044 147.328 89.396 148.16 90.1 148.736C90.42 149.035 90.6867 149.237 90.9 149.344C91.1133 149.451 91.38 149.504 91.7 149.504C92.3187 149.504 92.9053 149.333 93.46 148.992C94.036 148.629 94.484 148.16 94.804 147.584C95.1453 147.008 95.316 146.389 95.316 145.728L95.284 142.56C94.836 142.048 94.42 141.696 94.036 141.504C93.6733 141.291 93.2893 141.184 92.884 141.184C91.5187 141.184 90.58 141.707 90.068 142.752C89.7907 143.243 89.5453 143.797 89.332 144.416C89.14 145.035 89.044 145.643 89.044 146.24ZM105.234 131.456C105.981 131.52 106.632 131.723 107.186 132.064C107.741 132.384 108.018 132.875 108.018 133.536C108.018 134.027 107.784 134.421 107.314 134.72C106.866 134.997 106.322 135.136 105.682 135.136C105.064 135.136 104.637 134.976 104.402 134.656C104.168 134.336 104.05 134.005 104.05 133.664C104.05 133.024 104.114 132.491 104.242 132.064C104.392 131.637 104.722 131.435 105.234 131.456ZM107.794 145.632V146.56C107.794 147.392 107.816 148.181 107.858 148.928C107.922 149.653 107.997 150.389 108.082 151.136C108.082 151.392 107.933 151.627 107.634 151.84C107.336 152.032 107.058 152.128 106.802 152.128C106.397 152.128 105.981 152.053 105.554 151.904C105.149 151.733 104.904 151.531 104.818 151.296C104.69 150.613 104.626 150.005 104.626 149.472C104.626 147.723 104.573 145.76 104.466 143.584C104.381 141.664 104.338 140.32 104.338 139.552C104.338 139.168 104.53 138.837 104.914 138.56C105.298 138.283 105.704 138.144 106.13 138.144C106.749 138.144 107.176 138.283 107.41 138.56C107.666 138.837 107.794 139.275 107.794 139.872V145.632ZM126.318 150.464C126.318 150.933 126.062 151.328 125.55 151.648C125.038 151.968 124.568 152.128 124.142 152.128C123.352 152.128 122.712 152.032 122.222 151.84C121.752 151.627 121.304 151.243 120.878 150.688C120.344 151.179 119.598 151.552 118.638 151.808C117.678 152.043 116.792 152.16 115.982 152.16C114.659 152.16 113.56 151.808 112.686 151.104C111.832 150.379 111.406 149.323 111.406 147.936C111.406 147.339 111.587 146.741 111.95 146.144C112.312 145.525 112.76 145.035 113.294 144.672C113.87 144.288 114.52 144.032 115.246 143.904C115.971 143.755 116.814 143.68 117.774 143.68C118.222 143.68 118.755 143.765 119.374 143.936C119.992 144.107 120.483 144.288 120.846 144.48V143.968C120.846 142.816 120.558 142.027 119.982 141.6C119.427 141.152 118.531 140.928 117.294 140.928C116.91 140.928 116.558 140.992 116.238 141.12C115.939 141.227 115.587 141.387 115.182 141.6C114.798 141.813 114.435 141.92 114.094 141.92C113.795 141.92 113.507 141.803 113.23 141.568C112.952 141.312 112.814 141.045 112.814 140.768C112.814 139.872 113.368 139.221 114.478 138.816C115.608 138.389 116.76 138.176 117.934 138.176C118.531 138.176 119.214 138.304 119.982 138.56C120.75 138.795 121.4 139.125 121.934 139.552C122.574 140.085 123.064 140.725 123.406 141.472C123.768 142.219 123.95 143.029 123.95 143.904C123.95 144.181 123.928 144.597 123.886 145.152C123.843 145.749 123.822 146.261 123.822 146.688L123.79 147.552C123.747 148.021 123.726 148.395 123.726 148.672C123.726 148.928 123.811 149.152 123.982 149.344C124.174 149.515 124.398 149.6 124.654 149.6L125.55 149.568C125.784 149.568 125.966 149.664 126.094 149.856C126.243 150.027 126.318 150.229 126.318 150.464ZM115.982 149.632C116.899 149.632 117.667 149.536 118.286 149.344C118.904 149.152 119.651 148.8 120.526 148.288C120.611 147.925 120.664 147.445 120.686 146.848C119.512 146.293 118.542 146.016 117.774 146.016C117.048 146.016 116.462 146.048 116.014 146.112C115.566 146.155 115.16 146.336 114.798 146.656C114.435 146.976 114.254 147.488 114.254 148.192C114.254 148.597 114.446 148.939 114.83 149.216C115.235 149.493 115.619 149.632 115.982 149.632ZM142.976 149.536C143.082 149.579 143.253 149.632 143.488 149.696C143.722 149.76 143.893 149.824 144 149.888C144.106 149.952 144.16 150.048 144.16 150.176C144.181 150.688 143.989 151.115 143.583 151.456C143.2 151.776 142.741 151.936 142.208 151.936C141.376 151.936 140.725 151.712 140.256 151.264C139.786 150.816 139.445 150.133 139.232 149.216C139.146 148.853 139.104 148.352 139.104 147.712C139.104 147.349 139.125 146.763 139.168 145.952C139.21 145.099 139.232 144.416 139.232 143.904C139.232 143.157 139.018 142.507 138.592 141.952C138.186 141.376 137.61 141.088 136.864 141.088C136.416 141.088 135.946 141.227 135.456 141.504C134.965 141.76 134.624 142.08 134.432 142.464C134.112 143.083 133.888 143.755 133.76 144.48C133.525 145.76 133.408 147.093 133.408 148.48C133.408 149.141 133.418 149.653 133.44 150.016C133.44 150.101 133.44 150.272 133.44 150.528C133.461 150.763 133.44 150.987 133.376 151.2C133.333 151.392 133.248 151.573 133.12 151.744C133.013 151.851 132.842 151.936 132.608 152C132.394 152.085 132.192 152.128 132 152.128C131.701 152.128 131.328 152 130.88 151.744C130.432 151.488 130.176 151.2 130.112 150.88L130.08 150.336C130.08 150.144 130.101 149.92 130.144 149.664C130.4 148.171 130.528 146.869 130.528 145.76C130.528 145.269 130.517 144.885 130.496 144.608L130.464 143.104C130.464 142.592 130.336 142.101 130.08 141.632C129.824 141.141 129.525 140.896 129.184 140.896C129.077 140.896 128.928 140.939 128.736 141.024C128.544 141.088 128.384 141.12 128.256 141.12C128.042 141.12 127.808 141.013 127.552 140.8C127.317 140.587 127.2 140.363 127.2 140.128C127.2 139.68 127.349 139.317 127.648 139.04C127.968 138.784 128.277 138.581 128.576 138.432C128.896 138.283 129.258 138.208 129.664 138.208C130.005 138.208 130.282 138.24 130.496 138.304C130.709 138.368 130.997 138.507 131.36 138.72C131.552 138.827 131.776 139.061 132.032 139.424C132.288 139.787 132.501 140.299 132.672 140.96C133.226 139.936 133.909 139.221 134.72 138.816C135.552 138.389 136.608 138.176 137.888 138.176C138.378 138.176 138.901 138.336 139.456 138.656C140.032 138.976 140.522 139.349 140.928 139.776C141.312 140.245 141.632 140.832 141.888 141.536C142.144 142.219 142.272 142.837 142.272 143.392C142.272 143.712 142.25 144.235 142.208 144.96C142.144 145.536 142.112 146.144 142.112 146.784C142.112 148.277 142.4 149.195 142.976 149.536ZM46.1586 155.776C46.4573 155.776 46.82 155.979 47.2466 156.384C47.6946 156.768 47.9186 157.099 47.9186 157.376C47.9186 158.677 47.876 160.459 47.7906 162.72C47.7693 163.275 47.748 163.947 47.7266 164.736C47.7053 165.504 47.6946 166.4 47.6946 167.424C47.6946 170.667 47.8866 173.056 48.2706 174.592C48.2493 175.104 48.0466 175.477 47.6626 175.712C47.2786 175.925 46.8946 176.032 46.5106 176.032C45.6573 176.032 45.092 175.733 44.8146 175.136C44.5586 174.539 44.4306 173.685 44.4306 172.576C44.4306 168.459 44.4733 164.672 44.5586 161.216C42.1053 163.947 40.196 166.24 38.8306 168.096C38.8306 168.096 38.6386 168.224 38.2546 168.48C37.892 168.8 37.5933 168.96 37.3586 168.96C36.804 168.96 36.3453 168.821 35.9826 168.544C35.62 168.267 35.268 167.861 34.9266 167.328L33.3906 165.152C32.324 163.659 31.5453 162.528 31.0546 161.76C31.0546 163.723 31.1506 166.389 31.3426 169.76C31.492 171.701 31.5666 173.163 31.5666 174.144C31.5666 174.656 31.4386 175.093 31.1826 175.456C30.9266 175.797 30.5213 175.968 29.9666 175.968C29.412 175.968 28.9533 175.861 28.5906 175.648C28.2493 175.435 28.068 175.115 28.0466 174.688C28.068 174.325 28.0786 173.728 28.0786 172.896C28.0786 171.232 28.0253 169.205 27.9186 166.816L27.8546 165.088L27.7906 162.848C27.7693 162.187 27.748 161.419 27.7266 160.544C27.7053 159.648 27.6946 158.677 27.6946 157.632C27.6946 156.352 28.388 155.712 29.7746 155.712C30.2013 155.712 30.628 155.819 31.0546 156.032C31.5026 156.245 31.8333 156.555 32.0466 156.96C32.2173 157.707 32.8466 158.944 33.9346 160.672C35.0226 162.4 36.0893 164.021 37.1346 165.536C38.0733 164.341 38.8413 163.445 39.4386 162.848C40.4626 161.803 41.3053 160.832 41.9666 159.936C42.6493 159.04 43.3853 157.963 44.1746 156.704C44.3666 156.448 44.644 156.235 45.0066 156.064C45.3693 155.872 45.7533 155.776 46.1586 155.776ZM64.9149 165.728C65.0855 166.027 65.2242 166.464 65.3309 167.04C65.4375 167.595 65.4909 168.096 65.4909 168.544C65.4909 169.376 65.3095 170.56 64.9469 172.096C63.4749 174.784 61.2989 176.128 58.4189 176.128C57.3522 176.128 56.2642 175.776 55.1549 175.072C54.0455 174.368 53.2775 173.557 52.8509 172.64C52.2749 170.805 51.9869 169.643 51.9869 169.152C51.9869 168.299 52.1682 167.392 52.5309 166.432C52.9149 165.472 53.3949 164.64 53.9709 163.936C54.3335 163.445 54.9842 163.029 55.9229 162.688C56.8615 162.325 57.7149 162.144 58.4829 162.144C59.9762 162.144 61.2455 162.432 62.2909 163.008C63.3362 163.563 64.2109 164.469 64.9149 165.728ZM62.1309 170.88C62.2375 170.603 62.2909 169.888 62.2909 168.736C62.2909 168.117 62.1735 167.509 61.9389 166.912C61.7255 166.315 61.4055 165.803 60.9789 165.376C60.9362 165.333 60.8189 165.269 60.6269 165.184C60.4349 165.077 60.1682 164.981 59.8269 164.896C59.5069 164.789 59.1335 164.736 58.7069 164.736C57.5122 164.736 56.6375 165.216 56.0829 166.176C55.5282 167.136 55.2509 168.224 55.2509 169.44C55.2509 169.653 55.3042 170.059 55.4109 170.656C55.5389 171.253 55.6455 171.627 55.7309 171.776C55.7949 171.925 55.9549 172.139 56.2109 172.416C56.4882 172.672 56.8189 172.907 57.2029 173.12C57.6082 173.312 58.0242 173.408 58.4509 173.408C59.4109 173.408 60.1789 173.184 60.7549 172.736C61.3309 172.267 61.7895 171.648 62.1309 170.88ZM76.0419 167.776C76.1059 167.605 76.3299 166.987 76.7139 165.92C77.1192 164.853 77.4925 164.043 77.8339 163.488C78.3885 162.613 78.8792 162.176 79.3059 162.176C79.9032 162.176 80.3619 162.293 80.6819 162.528C81.0019 162.741 81.1619 163.051 81.1619 163.456C81.1619 163.648 81.0765 163.915 80.9059 164.256C80.7565 164.597 80.6712 164.8 80.6499 164.864C79.7965 166.741 79.0285 168.757 78.3459 170.912L77.6739 173.408C77.4179 174.219 76.9805 174.88 76.3619 175.392C75.7432 175.883 75.0179 176.128 74.1859 176.128C73.4392 176.128 72.7459 175.787 72.1059 175.104C71.7219 174.507 71.3165 173.749 70.8899 172.832C70.4845 171.915 70.1325 171.019 69.8339 170.144L68.7139 166.784C68.4792 166.123 68.2872 165.557 68.1379 165.088C68.0099 164.619 67.9459 164.192 67.9459 163.808C67.9245 163.36 68.0525 162.997 68.3299 162.72C68.6072 162.443 68.9912 162.304 69.4819 162.304C70.0365 162.304 70.4312 162.421 70.6659 162.656C70.9005 162.869 71.1139 163.211 71.3059 163.68C71.3912 164.171 71.6259 165.173 72.0099 166.688L72.2339 167.584C72.4259 168.309 72.6712 169.045 72.9699 169.792C73.2685 170.539 73.5672 171.253 73.8659 171.936C73.8232 171.829 73.9725 172.181 74.3139 172.992C74.5272 172.373 74.7725 171.616 75.0499 170.72L76.0419 167.776ZM85.0624 155.456C85.809 155.52 86.4597 155.723 87.0144 156.064C87.569 156.384 87.8464 156.875 87.8464 157.536C87.8464 158.027 87.6117 158.421 87.1424 158.72C86.6944 158.997 86.1504 159.136 85.5104 159.136C84.8917 159.136 84.465 158.976 84.2304 158.656C83.9957 158.336 83.8784 158.005 83.8784 157.664C83.8784 157.024 83.9424 156.491 84.0704 156.064C84.2197 155.637 84.5504 155.435 85.0624 155.456ZM87.6224 169.632V170.56C87.6224 171.392 87.6437 172.181 87.6864 172.928C87.7504 173.653 87.825 174.389 87.9104 175.136C87.9104 175.392 87.761 175.627 87.4624 175.84C87.1637 176.032 86.8864 176.128 86.6304 176.128C86.225 176.128 85.809 176.053 85.3824 175.904C84.977 175.733 84.7317 175.531 84.6464 175.296C84.5184 174.613 84.4544 174.005 84.4544 173.472C84.4544 171.723 84.401 169.76 84.2944 167.584C84.209 165.664 84.1664 164.32 84.1664 163.552C84.1664 163.168 84.3584 162.837 84.7424 162.56C85.1264 162.283 85.5317 162.144 85.9584 162.144C86.577 162.144 87.0037 162.283 87.2384 162.56C87.4944 162.837 87.6224 163.275 87.6224 163.872V169.632ZM91.3619 168.768C91.3619 168 91.5005 167.285 91.7779 166.624C92.0552 165.941 92.4605 165.237 92.9939 164.512C93.5272 163.787 94.2632 163.221 95.2019 162.816C96.1405 162.389 97.1645 162.176 98.2739 162.176C99.1272 162.176 99.9485 162.357 100.738 162.72C101.549 163.061 102.274 163.488 102.914 164C102.999 164.149 103.149 164.427 103.362 164.832C103.575 165.216 103.725 165.568 103.81 165.888C103.917 166.208 103.97 166.539 103.97 166.88C103.97 168.309 103.447 169.269 102.402 169.76C101.357 170.229 100.034 170.464 98.4339 170.464C96.8339 170.464 95.5325 170.357 94.5299 170.144C94.5725 170.549 94.6792 170.955 94.8499 171.36C95.0205 171.765 95.2232 172.075 95.4579 172.288C95.8845 172.693 96.3005 172.96 96.7059 173.088C97.1325 173.195 97.6979 173.248 98.4019 173.248C99.4685 173.248 100.301 173.045 100.898 172.64C101.453 172.277 101.879 172.096 102.178 172.096C102.583 172.096 102.893 172.224 103.106 172.48C103.319 172.715 103.426 173.024 103.426 173.408C103.426 174.219 102.903 174.88 101.858 175.392C100.834 175.904 99.6712 176.16 98.3699 176.16C97.3459 176.16 96.3325 175.979 95.3299 175.616C94.3272 175.253 93.5272 174.741 92.9299 174.08C92.5245 173.397 92.1619 172.565 91.8419 171.584C91.5219 170.603 91.3619 169.664 91.3619 168.768ZM98.4019 164.8C97.9325 164.8 97.4419 164.885 96.9299 165.056C96.4392 165.205 96.0552 165.44 95.7779 165.76C95.4365 166.123 95.1805 166.453 95.0099 166.752C94.8605 167.051 94.7645 167.424 94.7219 167.872C94.9565 167.872 95.1805 167.883 95.3939 167.904C95.6072 167.925 95.8099 167.947 96.0019 167.968C96.9405 168.053 97.6445 168.096 98.1139 168.096C99.0525 168.096 99.7672 167.957 100.258 167.68C100.77 167.403 101.026 167.029 101.026 166.56C101.026 166.112 100.738 165.707 100.162 165.344C99.6072 164.981 99.0205 164.8 98.4019 164.8ZM116.015 169.088C116.186 169.195 116.517 169.397 117.007 169.696C117.519 169.973 117.861 170.304 118.031 170.688C118.202 171.072 118.287 171.605 118.287 172.288C118.287 173.056 118.063 173.739 117.615 174.336C117.167 174.912 116.591 175.36 115.887 175.68C115.397 175.893 114.863 176.021 114.287 176.064C113.733 176.107 113.061 176.128 112.271 176.128C111.845 176.128 111.29 176.064 110.607 175.936C109.946 175.808 109.487 175.691 109.231 175.584C108.549 175.2 107.973 174.752 107.503 174.24C107.034 173.728 106.799 173.205 106.799 172.672C106.799 172.245 106.938 171.904 107.215 171.648C107.493 171.392 107.855 171.264 108.303 171.264C108.538 171.264 108.762 171.328 108.975 171.456C109.21 171.563 109.37 171.691 109.455 171.84C109.69 172.395 110.085 172.811 110.639 173.088C111.194 173.365 111.759 173.504 112.335 173.504C114.362 173.504 115.375 173.141 115.375 172.416C115.375 172.224 115.322 172.075 115.215 171.968C115.13 171.84 115.002 171.712 114.831 171.584C114.554 171.392 114.159 171.189 113.647 170.976C113.157 170.763 112.719 170.603 112.335 170.496C111.461 170.304 110.607 170.016 109.775 169.632C109.007 169.248 108.378 168.747 107.887 168.128C107.397 167.488 107.151 166.709 107.151 165.792C107.151 165.237 107.354 164.693 107.759 164.16C108.186 163.605 108.677 163.189 109.231 162.912C109.615 162.763 110.245 162.603 111.119 162.432C111.994 162.261 112.591 162.176 112.911 162.176C113.402 162.176 113.935 162.229 114.511 162.336C115.087 162.421 115.525 162.571 115.823 162.784C116.399 163.125 116.869 163.488 117.231 163.872C117.594 164.235 117.775 164.651 117.775 165.12C117.775 165.355 117.722 165.611 117.615 165.888C117.509 166.144 117.381 166.304 117.231 166.368C116.911 166.517 116.538 166.592 116.111 166.592C115.919 166.592 115.759 166.539 115.631 166.432C115.525 166.325 115.375 166.155 115.183 165.92C114.949 165.557 114.725 165.344 114.511 165.28C114.255 165.216 113.882 165.141 113.391 165.056C112.901 164.949 112.57 164.896 112.399 164.896C111.866 164.896 111.354 165.003 110.863 165.216C110.394 165.429 110.159 165.717 110.159 166.08C110.159 166.507 110.511 166.869 111.215 167.168C111.663 167.381 112.154 167.563 112.687 167.712C113.242 167.861 113.583 167.957 113.711 168C114.01 168.064 114.394 168.213 114.863 168.448C115.354 168.683 115.738 168.896 116.015 169.088Z" fill="white"/>
<path d="M72.5 0C70.2014 2.71164 67.1592 5.51508 63.8805 8.55164C59.584 12.5304 54.913 16.8373 51.209 21.2856C47.5054 25.7336 44.8355 30.2945 44.2261 34.6192C43.6457 38.7361 44.7161 42.7741 48.9091 47.2475H96.0911C100.284 42.7741 101.355 38.7361 100.774 34.6194C100.164 30.2945 97.4946 25.7336 93.7908 21.2859C90.0869 16.8381 85.416 12.5309 81.1192 8.55189C77.841 5.51534 74.7986 2.71164 72.5 0ZM15.1 10.3193C11 14.4224 11 18.5255 11 22.6286H12.7937V40.8361H11V45.4521H12.7937V117H17.4062V45.4521H19.2V40.8361H17.4062V22.6286H19.2C19.2 18.5255 19.2 14.4224 15.1 10.3193ZM129.9 10.3193C125.8 14.4224 125.8 18.5255 125.8 22.6286H127.594V40.8361H125.8V45.4521H127.594V117H132.206V45.4521H134V40.8361H132.206V22.6286H134C134 18.5255 134 14.4224 129.9 10.3193ZM35.6 45.4521C31.5 49.5552 27.4 53.6583 27.4 57.7614V63.6597H43.8V57.7614C43.8 53.6583 39.7 49.5552 35.6 45.4521ZM109.4 45.4521C105.3 49.5552 101.2 53.6583 101.2 57.7614V63.6597H117.6V57.7614C117.6 53.6583 113.5 49.5552 109.4 45.4521ZM50.2062 51.8632V55.4534H94.7937V51.8632H50.2062ZM50.2062 60.0694V117H60.2V82.3801C60.2 78.277 68.4 70.0707 72.5 65.9676C76.6 70.0707 84.8 78.277 84.8 82.3801V117H94.7937V60.0694H50.2062ZM25.6062 68.2756V117H45.5937V68.2756H25.6062ZM99.4062 68.2756V117H119.394V68.2756H99.4062ZM35.6 70.0707C35.6 70.0707 39.7 72.1823 39.7 74.1739V82.3801H31.5V74.1739C31.5 72.1823 35.6 70.0707 35.6 70.0707ZM109.4 71.472C109.4 71.472 113.5 73.5833 113.5 75.5751V83.7813H105.3V75.5751C105.3 73.5833 109.4 71.472 109.4 71.472ZM35.6 86.4832C35.6 86.4832 39.7 88.5947 39.7 90.5863V98.7925H31.5V90.5863C31.5 88.5947 35.6 86.4832 35.6 86.4832ZM109.4 86.4832C109.4 86.4832 113.5 88.5947 113.5 90.5863V98.7925H105.3V90.5863C105.3 88.5947 109.4 86.4832 109.4 86.4832ZM35.6 102.896C35.6 102.896 39.7 105.007 39.7 106.999V115.205H31.5V106.999C31.5 105.007 35.6 102.896 35.6 102.896ZM109.4 102.896C109.4 102.896 113.5 105.007 113.5 106.999V115.205H105.3V106.999C105.3 105.007 109.4 102.896 109.4 102.896Z" fill="white"/>
</svg>
